<svg width="84" height="31" viewBox="0 0 84 31" fill="none" xmlns="http://www.w3.org/2000/svg">
<path d="M55.6616 -3.8147e-06L58.6537 1.23529L82.7557 28.5765C83.5518 29.4823 82.9204 30.9098 81.7126 30.9098H28.4577L55.6616 -3.8147e-06Z" fill="#2044A0"/>
<path d="M26.893 30.8824H37.242L58.7636 6.45098C60.9871 3.95294 59.2028 -1.90735e-06 55.8538 -1.90735e-06C54.7283 -1.90735e-06 53.6851 0.466665 52.944 1.31765L26.893 30.8824Z" fill="#C7DAFF"/>
<path d="M27.9361 -1.90735e-06L30.9283 1.23529L57.0616 30.8824H0.732193L27.9361 -1.90735e-06Z" fill="#3366FF"/>
<path d="M0.704741 30.8824H9.51651L31.0381 6.45098C33.2342 3.95294 31.4498 0 28.1008 0C26.9753 0 25.9322 0.466667 25.191 1.31765L0.183174 29.7294C-0.228591 30.1686 0.100819 30.8824 0.704741 30.8824Z" fill="#C7DAFF"/>
</svg>
