<svg width="1040" height="780" viewBox="0 0 1040 780" fill="none" xmlns="http://www.w3.org/2000/svg">
<g clip-path="url(#clip0_501_106)">
<path d="M816.93 624.994L830.133 620.867C831.194 620.159 832.372 619.687 833.434 618.744L812.922 625.348C814.336 625.229 815.633 625.229 816.93 624.994ZM807.616 624.994L837.441 615.325C838.03 614.853 838.383 614.263 838.973 613.792L805.612 624.404C806.32 624.757 807.027 624.875 807.616 624.994ZM802.43 623.696L841.449 611.198C841.921 610.844 842.039 610.372 842.511 609.9L801.369 622.989C801.723 623.46 802.076 623.46 802.43 623.696ZM799.364 621.692L844.161 607.306C844.396 606.953 844.632 606.481 844.868 606.127L798.657 620.984C798.775 621.337 799.129 621.574 799.364 621.692ZM797.125 619.451L845.929 603.885C846.165 603.531 846.165 603.178 846.401 602.706L796.536 618.742C796.89 618.98 797.007 619.333 797.125 619.451ZM795.71 617.093L847.579 600.585C847.579 600.232 847.815 599.877 847.815 599.405L795.239 616.266C795.357 616.503 795.475 616.857 795.71 617.093ZM794.413 614.498L848.286 597.165C848.286 596.811 848.404 596.458 848.522 595.986L794.059 613.319C794.178 613.909 794.296 614.145 794.413 614.498ZM793.471 611.905L848.994 594.1C848.994 593.747 849.111 593.392 849.111 593.038L793.117 611.079C793.234 611.198 793.353 611.551 793.471 611.905ZM792.999 608.721C793.117 608.839 792.881 608.956 792.999 609.074L849.466 591.034C849.466 590.68 849.583 590.326 849.583 589.972L793.352 607.895C793.234 608.131 793.117 608.367 792.999 608.721ZM795.946 604.712C795.828 604.829 795.71 605.066 795.474 605.066L849.582 587.733C849.582 587.379 849.465 587.143 849.582 586.79L796.888 603.77C796.418 604.122 796.182 604.476 795.946 604.712ZM798.539 601.292L849.111 585.138C849.111 584.784 848.994 584.549 848.876 584.196L799.011 600.232C799.011 600.585 798.775 600.821 798.539 601.292ZM800.191 597.755L848.877 582.19C848.759 581.837 848.759 581.6 848.642 581.247L800.662 596.693C800.308 597.165 800.308 597.519 800.191 597.755ZM801.015 594.571L848.169 579.595C848.051 579.241 847.933 579.123 847.933 578.653L801.37 593.628C801.133 593.982 801.015 594.218 801.015 594.571ZM801.251 591.506L847.107 576.884C846.99 576.531 846.872 576.412 846.754 576.059L801.133 590.563C801.251 590.916 801.251 591.27 801.251 591.506ZM801.015 588.558L845.576 574.29C845.458 573.937 845.341 573.818 845.222 573.465L800.898 587.614C801.015 587.968 801.015 588.44 801.015 588.558ZM800.426 585.846L843.925 571.815C843.807 571.461 843.453 571.225 843.336 571.107L799.954 585.021C800.191 585.374 800.308 585.609 800.426 585.846ZM841.214 568.866L798.894 582.308C799.011 582.661 799.129 582.78 799.248 583.133L841.922 569.455C841.921 569.338 841.568 569.102 841.214 568.866ZM838.738 566.744L797.478 579.95C797.596 580.304 797.95 580.539 798.068 580.657L839.68 567.333C839.327 567.333 838.974 566.98 838.738 566.744ZM835.438 564.857L796.065 577.355C796.182 577.71 796.3 577.827 796.419 578.181L836.617 565.21C836.145 565.211 835.909 564.975 835.438 564.857ZM831.312 563.324C831.194 563.442 831.076 563.206 830.959 563.324L796.183 574.408C796.066 574.643 796.066 575.115 796.066 575.47L832.845 563.678C832.254 563.678 831.783 563.442 831.312 563.324ZM822.47 562.971L799.954 570.163C799.247 570.753 798.422 571.225 797.714 571.813L826.242 562.734C825.064 562.853 823.649 562.853 822.47 562.971Z" fill="#E6E6E6"/>
<path d="M883.652 425.012C885.301 429.964 883.416 435.27 880.94 439.869C874.22 452.486 863.376 462.862 850.408 468.876C843.218 472.296 835.437 474.3 828.011 477.366C806.438 486.327 788.873 504.25 780.504 526.064C782.98 510.971 775.081 495.996 765.414 484.087C755.865 472.178 744.312 461.447 737.476 447.769C731.581 435.978 731.464 418.527 743.371 412.866C752.095 408.739 763.058 413.338 772.017 409.564C775.201 408.15 778.03 405.32 777.911 401.9C777.439 393.174 760.228 393.764 759.757 385.039C759.285 375.016 785.692 377.964 782.273 368.413C780.859 364.404 775.201 363.225 773.314 359.452C771.31 355.679 771.428 350.373 774.846 347.661C779.208 344.123 785.81 346.953 791.35 345.656C797.598 344.241 801.606 337.874 802.903 331.507C804.2 325.14 803.493 318.654 804.435 312.287C806.675 296.604 819.525 283.045 834.967 279.743C850.409 276.441 867.621 283.752 875.99 297.194C879.409 302.736 881.295 310.164 877.64 315.47C874.457 319.95 867.621 322.899 868.209 328.323C868.916 335.752 882.709 336.459 882.944 343.888C883.18 352.614 865.261 352.614 865.733 361.339C865.969 365.23 870.094 367.47 872.57 370.536C877.286 376.195 875.4 385.982 868.916 389.519C866.323 390.934 863.258 391.524 861.254 393.528C856.067 398.598 861.136 407.56 867.266 411.334C873.397 415.107 881.412 418.055 883.652 425.012Z" fill="url(#paint0_linear_501_106)"/>
<path d="M838.385 425.602C842.039 423.597 845.929 421.71 848.876 418.645C854.889 412.041 854.534 402.137 855.006 393.175C855.478 384.214 858.66 373.72 867.266 371.361C874.457 369.356 883.535 373.719 888.839 368.531C890.843 366.644 891.668 363.814 893.083 361.457C899.213 351.198 915.362 352.023 924.322 359.924C933.163 367.824 936.582 380.087 939.529 391.643C940.59 395.887 940.708 401.784 936.582 402.962C932.574 404.024 928.565 399.07 924.794 400.604C921.729 401.784 921.493 406.146 922.672 409.33C923.733 412.395 925.618 415.579 924.911 418.881C923.497 425.013 914.892 425.366 908.761 423.716C902.631 422.065 894.734 420.414 891.197 425.72C895.088 438.101 898.388 453.194 889.665 462.981C879.645 474.183 861.137 473.004 846.166 474.419C818.346 477.014 798.658 498.237 782.98 521.466C782.036 482.553 804.317 444.114 838.385 425.602Z" fill="url(#paint1_linear_501_106)"/>
<path d="M803.491 503.778C803.373 503.778 803.373 503.778 803.255 503.778C802.901 503.66 802.783 503.306 802.901 503.071C817.048 459.796 839.563 429.729 880.705 399.425C888.367 393.765 911.473 384.214 921.493 383.389C921.728 383.389 922.082 383.624 922.082 383.978C922.082 384.333 921.847 384.568 921.493 384.568C911.944 385.393 888.721 394.944 881.412 400.369C840.389 430.555 817.99 460.387 803.963 503.425C803.963 503.543 803.727 503.778 803.491 503.778Z" fill="white"/>
<path d="M825.3 376.903L820.584 363.932C818.934 363.814 817.165 364.05 815.515 364.639L820.584 378.553C820.819 379.378 820.466 380.203 819.641 380.44C818.816 380.675 817.991 380.322 817.755 379.497L812.686 365.819C811.154 366.762 809.857 368.059 808.796 369.474L813.039 381.03C813.275 381.855 812.922 382.68 812.097 382.917C811.272 383.152 810.447 382.799 810.21 381.974L806.909 372.895C805.023 377.611 804.905 383.625 807.027 389.52C807.027 389.638 807.145 389.756 807.145 389.875C806.083 390.464 804.905 391.172 803.961 391.997C801.015 394.119 797.242 397.774 795.945 402.963L797.359 403.317C798.539 398.601 802.075 395.181 804.786 393.294C805.729 392.587 806.673 391.997 807.733 391.407C809.973 396.359 813.627 400.369 817.635 402.491L814.452 393.884C814.216 393.059 814.569 392.233 815.394 391.997C816.219 391.76 817.044 392.115 817.281 392.94L821.407 404.024C823.176 404.496 824.943 404.613 826.712 404.259L821.996 391.288C821.761 390.463 822.114 389.638 822.939 389.401C823.764 389.166 824.589 389.519 824.825 390.344L829.659 403.433C831.191 402.725 832.606 401.664 833.785 400.485L829.423 388.694C829.188 387.869 829.541 387.044 830.366 386.807C831.191 386.572 832.016 386.925 832.252 387.75L836.024 397.891C837.203 396.122 838.264 394.236 839.208 392.231L836.85 385.864C836.615 385.039 836.968 384.214 837.793 383.977C838.618 383.742 839.443 384.095 839.679 384.92L840.976 388.34C843.334 382.68 844.867 377.138 846.871 375.369C843.57 374.662 838.973 371.596 833.903 368.765L835.553 373.128C835.789 373.953 835.436 374.778 834.611 375.015C833.786 375.25 832.961 374.897 832.724 374.072L830.013 366.643C828.009 365.7 826.005 364.993 824.001 364.521L828.126 375.959C828.362 376.784 828.009 377.609 827.184 377.846C826.479 378.082 825.653 377.728 825.3 376.903Z" fill="white"/>
<path d="M592.126 521.347H460.567V667.677H592.126V521.347Z" fill="#D6D7D8"/>
<path d="M673.583 662.962H379.108V674.281H673.583V662.962Z" fill="#428DFC"/>
<path d="M815.279 241.538H237.412V615.796H815.279V241.538Z" fill="url(#paint2_linear_501_106)"/>
<path d="M805.142 250.854H247.55V559.079H805.142V250.854Z" fill="white"/>
<path d="M498.039 588.013L505.624 595.6L513.209 588.013L505.624 580.426L498.039 588.013Z" fill="#A1C3FC"/>
<path d="M518.731 587.997L526.316 595.584L533.901 587.997L526.316 580.41L518.731 587.997Z" fill="white"/>
<path d="M539.422 588.029L547.007 595.616L554.592 588.029L547.007 580.442L539.422 588.029Z" fill="#1D72D8"/>
<path d="M803.608 197.793C803.608 198.028 803.608 198.265 803.608 198.5C803.608 208.287 811.506 216.188 821.291 216.188C831.076 216.188 838.974 208.288 838.974 198.5C838.974 198.265 838.974 198.028 838.974 197.793H803.608Z" fill="#D3E3FE"/>
<path d="M866.912 154.753C866.912 155.108 866.912 155.579 866.912 155.933C866.912 172.087 879.997 185.175 896.147 185.175C912.297 185.175 925.382 172.087 925.382 155.933C925.382 155.579 925.382 155.108 925.382 154.753H866.912Z" fill="#A1C3FC"/>
<path d="M125.658 124.096C125.658 124.804 125.658 125.393 125.658 126.101C125.658 153.339 147.82 175.507 175.052 175.507C202.283 175.507 224.445 153.34 224.445 126.101C224.445 125.393 224.445 124.804 224.445 124.096C224.444 124.096 125.658 124.096 125.658 124.096Z" fill="#F4F4F4"/>
<path d="M177.409 124.096C177.409 124.568 177.409 125.039 177.409 125.511C177.409 145.321 193.441 161.357 213.246 161.357C233.05 161.357 249.082 145.321 249.082 125.511C249.082 125.039 249.082 124.568 249.082 124.096H177.409Z" fill="#E7EFFE"/>
<path d="M156.661 596.222C156.426 601.41 159.608 606.127 163.263 609.9C173.165 620.395 186.487 627.588 200.632 629.946C208.53 631.243 216.664 631.243 224.681 632.186C248.022 635.133 269.83 647.869 283.859 666.734C277.376 652.703 281.147 636.077 287.278 621.927C293.408 607.778 301.777 594.335 304.724 579.242C307.318 566.272 302.72 549.174 289.635 546.934C279.968 545.283 270.537 552.711 260.871 551.296C257.452 550.824 253.798 548.82 253.091 545.4C251.204 536.793 268.18 532.784 266.176 524.175C263.936 514.271 239.063 524.175 239.888 514.152C240.242 509.907 245.311 507.313 246.253 503.068C247.196 498.824 245.664 493.754 241.655 492.102C236.468 489.862 230.81 494.342 225.152 494.579C218.668 494.933 213.128 489.744 210.18 483.967C207.232 478.19 206.172 471.586 203.578 465.691C197.213 451.07 181.181 441.283 165.265 442.226C149.351 443.169 134.616 454.843 130.018 470.171C128.132 476.421 128.249 484.203 133.319 488.447C137.563 491.985 144.99 492.927 145.932 498.352C147.229 505.78 134.026 510.143 135.794 517.454C137.798 526.061 155.362 521.227 157.131 529.835C157.956 533.727 154.537 537.027 153.005 540.566C149.941 547.287 154.42 556.248 161.61 558.017C164.439 558.724 167.622 558.37 170.215 559.786C176.581 563.323 174.106 573.346 169.154 578.651C163.971 584.077 157.133 588.911 156.661 596.222Z" fill="url(#paint3_linear_501_106)"/>
<path d="M200.985 584.784C196.859 583.841 192.616 583.015 188.962 580.775C181.299 575.941 179.06 566.154 176.231 557.664C173.402 549.175 167.507 539.742 158.548 539.742C151.003 539.742 143.341 546.463 136.858 542.807C134.382 541.392 132.849 538.915 130.845 537.029C122.24 528.775 106.679 533.845 100.196 543.869C93.7125 553.892 93.7125 566.744 93.8302 578.771C93.9479 583.134 95.3625 588.912 99.7249 588.912C103.851 588.912 106.445 583.016 110.571 583.488C113.872 583.841 115.286 588.087 115.05 591.388C114.814 594.69 113.87 598.227 115.404 601.174C118.351 606.834 126.957 604.829 132.38 601.528C137.802 598.226 145.111 594.571 149.944 598.816C149.472 611.904 150.298 627.468 161.379 634.544C174.11 642.68 191.793 636.666 206.647 634.072C234.349 629.119 259.223 644.566 280.56 662.961C270.774 624.994 238.944 593.628 200.985 584.784Z" fill="url(#paint4_linear_501_106)"/>
<path d="M283.505 668.504C274.074 643.859 266.529 618.509 260.753 592.803" stroke="#428DFC" stroke-width="3.32292" stroke-miterlimit="10" stroke-linecap="round"/>
<path d="M273.624 587.195C272.999 584.466 266.627 583.598 259.393 585.257C252.159 586.917 246.802 590.474 247.428 593.203C248.054 595.932 254.425 596.8 261.659 595.141C268.893 593.481 274.25 589.924 273.624 587.195Z" fill="#23286B"/>
<path d="M260.046 589.736C256.863 575.115 254.27 560.494 252.266 545.637" stroke="#428DFC" stroke-width="3.32292" stroke-miterlimit="10" stroke-linecap="round"/>
<path d="M267.104 537.092C266.05 533.943 258.339 533.685 249.88 536.517C241.422 539.349 235.419 544.198 236.473 547.347C237.527 550.497 245.238 550.755 253.697 547.923C262.156 545.091 268.158 540.242 267.104 537.092Z" fill="#23286B"/>
<path d="M251.676 541.746C250.144 529.483 248.965 517.22 248.14 504.957" stroke="#428DFC" stroke-width="3.32292" stroke-miterlimit="10" stroke-linecap="round"/>
<path d="M265.094 500.545C265.059 497.225 257.8 494.61 248.882 494.704C239.964 494.799 232.762 497.567 232.798 500.888C232.833 504.208 240.091 506.823 249.009 506.729C257.928 506.634 265.129 503.866 265.094 500.545Z" fill="#23286B"/>
<path d="M247.903 499.769C247.431 490.454 247.196 481.021 247.078 471.587" stroke="#428DFC" stroke-width="3.32292" stroke-miterlimit="10" stroke-linecap="round"/>
<path d="M268.867 466.528C268.82 462.035 259.071 458.496 247.093 458.623C235.115 458.75 225.443 462.495 225.491 466.988C225.539 471.48 235.287 475.019 247.265 474.892C259.243 474.765 268.915 471.02 268.867 466.528Z" fill="#23286B"/>
<path d="M247.078 465.22C247.196 458.971 247.314 452.721 247.55 446.472" stroke="#428DFC" stroke-width="3.32292" stroke-miterlimit="10" stroke-linecap="round"/>
<path d="M233.758 633.601L238.473 620.63C240.123 620.512 241.892 620.748 243.542 621.338L238.473 635.251C238.238 636.076 238.591 636.902 239.416 637.138C240.241 637.375 241.066 637.02 241.302 636.195L246.371 622.517C247.903 623.46 249.2 624.757 250.262 626.172L246.018 637.728C245.783 638.553 246.136 639.378 246.961 639.615C247.786 639.851 248.611 639.497 248.847 638.672L252.148 629.593C254.034 634.309 254.152 640.323 252.03 646.218C252.03 646.336 251.913 646.454 251.913 646.573C252.974 647.162 254.152 647.87 255.096 648.695C258.043 650.817 261.816 654.472 263.112 659.661L261.698 660.015C260.519 655.299 256.982 651.879 254.271 649.992C253.328 649.285 252.385 648.695 251.324 648.105C249.085 653.057 245.429 657.067 241.422 659.189L244.606 650.582C244.841 649.757 244.488 648.931 243.663 648.695C242.838 648.459 242.013 648.813 241.776 649.638L237.65 660.722C235.882 661.194 234.114 661.311 232.345 660.957L237.061 647.986C237.296 647.161 236.943 646.336 236.118 646.1C235.293 645.863 234.468 646.217 234.232 647.042L229.399 660.131C227.866 659.423 226.452 658.362 225.273 657.183L229.634 645.392C229.869 644.567 229.516 643.742 228.691 643.505C227.866 643.27 227.041 643.623 226.805 644.448L223.033 654.589C221.854 652.82 220.794 650.934 219.85 648.929L222.207 642.562C222.442 641.737 222.089 640.912 221.264 640.675C220.439 640.439 219.614 640.793 219.378 641.618L218.081 645.038C215.724 639.378 214.19 633.836 212.186 632.067C215.487 631.36 220.084 628.294 225.154 625.463L223.504 629.826C223.268 630.651 223.622 631.476 224.447 631.713C225.272 631.949 226.096 631.595 226.333 630.77L229.044 623.341C231.048 622.398 233.053 621.691 235.057 621.219L230.931 632.657C230.695 633.482 231.049 634.307 231.873 634.544C232.579 634.78 233.404 634.426 233.758 633.601Z" fill="white"/>
<path d="M208.649 256.749L199.807 255.687C198.982 255.805 198.157 255.805 197.331 256.042L211.124 257.574C210.181 257.339 209.474 256.984 208.649 256.749ZM214.071 259.226L194.03 256.986C193.559 257.103 193.205 257.34 192.734 257.458L215.131 260.052C214.778 259.697 214.425 259.461 214.071 259.226ZM216.782 261.348L190.612 258.4C190.258 258.518 190.022 258.755 189.669 258.872L217.254 262.057C217.136 261.701 216.9 261.583 216.782 261.348ZM218.079 263.353L188.018 259.933C187.783 260.051 187.546 260.287 187.311 260.405L218.314 263.942C218.315 263.706 218.197 263.47 218.079 263.353ZM218.786 265.238L186.015 261.466C185.78 261.583 185.661 261.82 185.425 262.055L218.905 265.828C218.786 265.593 218.786 265.357 218.786 265.238ZM219.023 267.008L184.247 262.998C184.13 263.234 183.893 263.353 183.775 263.588L219.023 267.597C219.023 267.48 219.023 267.243 219.023 267.008ZM219.023 268.895L182.833 264.768C182.715 265.003 182.597 265.122 182.361 265.357L218.905 269.602C219.023 269.248 219.023 269.13 219.023 268.895ZM218.904 270.663L181.653 266.418C181.535 266.653 181.417 266.772 181.298 267.008L218.903 271.252C218.904 271.135 218.904 270.899 218.904 270.663ZM218.315 272.667C218.315 272.55 218.433 272.55 218.433 272.432L180.592 268.069C180.474 268.305 180.357 268.424 180.238 268.659L217.961 273.022C218.079 272.904 218.197 272.785 218.315 272.667ZM215.604 274.2C215.722 274.2 215.839 274.082 215.958 274.082L179.649 269.955C179.532 270.191 179.532 270.309 179.414 270.545L214.779 274.554C215.132 274.436 215.368 274.319 215.604 274.2ZM213.128 275.497L179.178 271.606C179.06 271.841 179.06 271.96 179.06 272.195L212.539 275.968C212.656 275.851 212.893 275.734 213.128 275.497ZM211.242 277.149L178.588 273.376C178.588 273.611 178.47 273.73 178.47 273.966L210.653 277.62C211.006 277.502 211.124 277.266 211.242 277.149ZM209.945 278.799L178.352 275.144C178.352 275.379 178.352 275.498 178.234 275.734L209.473 279.271C209.709 279.153 209.827 279.034 209.945 278.799ZM209.002 280.568L178.234 277.031C178.234 277.266 178.234 277.385 178.234 277.62L208.766 281.158C208.767 280.921 208.884 280.686 209.002 280.568ZM208.295 282.336L178.353 278.917C178.353 279.152 178.353 279.271 178.353 279.506L208.059 282.926C208.177 282.69 208.295 282.454 208.295 282.336ZM207.941 284.105L178.706 280.804C178.706 281.039 178.823 281.276 178.823 281.393L207.941 284.695C207.941 284.459 207.941 284.223 207.941 284.105ZM179.531 283.28L207.941 286.582C207.941 286.347 207.941 286.228 207.941 285.992L179.294 282.69C179.295 282.808 179.413 283.044 179.531 283.28ZM180.474 285.166L208.177 288.35C208.177 288.115 208.059 287.878 208.059 287.76L180.121 284.576C180.238 284.695 180.357 284.931 180.474 285.166ZM181.889 287.171L208.295 290.236C208.295 290 208.295 289.882 208.295 289.646L181.299 286.581C181.535 286.7 181.653 286.935 181.889 287.171ZM183.893 289.175C184.011 289.175 184.011 289.293 184.129 289.293L207.47 292.005C207.587 291.887 207.705 291.651 207.824 291.415L183.186 288.586C183.421 288.703 183.657 288.94 183.893 289.175ZM188.962 291.652L204.051 293.421C204.641 293.303 205.23 293.186 205.82 293.067L186.722 290.827C187.43 291.062 188.254 291.415 188.962 291.652Z" fill="#B3C9EE"/>
<path d="M832.255 646.925L846.047 647.514C847.344 647.279 848.641 647.16 849.819 646.689L828.246 645.982C829.779 646.217 830.958 646.689 832.255 646.925ZM823.531 643.742L854.887 644.803C855.595 644.568 856.067 644.214 856.892 643.861L821.88 642.563C822.47 643.152 822.941 643.505 823.531 643.742ZM819.169 640.793L860.075 642.208C860.664 641.973 860.9 641.618 861.489 641.383L818.344 639.732C818.58 640.322 818.934 640.44 819.169 640.793ZM816.812 637.846L863.848 639.496C864.201 639.26 864.555 638.906 864.909 638.671L816.459 636.902C816.458 637.374 816.693 637.728 816.812 637.846ZM815.515 635.016L866.795 636.903C867.149 636.667 867.266 636.313 867.62 635.96L815.279 634.073C815.515 634.426 815.515 634.78 815.515 635.016ZM814.926 632.304L869.271 634.308C869.388 633.954 869.742 633.719 869.978 633.365L814.808 631.361C814.926 631.596 814.926 631.95 814.926 632.304ZM814.69 629.356L871.275 631.478C871.392 631.124 871.628 630.889 871.982 630.536L814.808 628.295C814.69 628.884 814.69 629.002 814.69 629.356ZM814.69 626.644L872.925 628.766C873.042 628.412 873.279 628.177 873.397 627.823L814.573 625.701C814.69 625.937 814.69 626.29 814.69 626.644ZM815.398 623.46C815.398 623.695 815.28 623.695 815.28 623.814L874.458 626.054C874.576 625.701 874.812 625.465 874.93 625.111L815.988 622.871C815.751 623.107 815.515 623.224 815.398 623.46ZM819.405 620.748C819.169 620.748 819.051 620.983 818.815 620.983L875.635 622.988C875.753 622.635 875.753 622.398 875.989 622.045L820.702 620.04C820.112 620.277 819.759 620.512 819.405 620.748ZM823.06 618.39L876.108 620.395C876.226 620.04 876.226 619.805 876.226 619.452L823.885 617.565C823.767 617.8 823.413 618.036 823.06 618.39ZM825.771 615.678L876.815 617.565C876.815 617.211 876.933 616.975 876.933 616.622L826.596 614.853C826.124 615.088 826.007 615.442 825.771 615.678ZM827.657 612.966L877.051 614.853C877.051 614.499 877.051 614.263 877.168 613.91L828.364 612.141C827.893 612.376 827.774 612.613 827.657 612.966ZM828.836 610.136L876.933 611.905C876.933 611.552 876.933 611.315 876.815 610.962L829.072 609.075C829.19 609.546 829.071 609.9 828.836 610.136ZM829.779 607.306L876.579 609.075C876.579 608.722 876.579 608.486 876.461 608.132L830.015 606.363C829.897 606.716 829.779 607.071 829.779 607.306ZM830.133 604.476L875.871 606.127C875.871 605.774 875.636 605.419 875.636 605.184L830.133 603.533C830.015 603.887 830.133 604.24 830.133 604.476ZM874.222 602.354L829.78 600.585C829.78 600.939 829.78 601.174 829.897 601.528L874.693 603.178C874.693 603.061 874.457 602.707 874.222 602.354ZM872.57 599.524L829.307 597.874C829.307 598.227 829.542 598.581 829.542 598.817L873.277 600.467C872.925 600.232 872.807 599.877 872.57 599.524ZM870.096 596.575L828.836 594.925C828.836 595.279 828.836 595.515 828.954 595.868L871.156 597.401C870.685 597.283 870.449 596.93 870.096 596.575ZM866.795 593.746C866.559 593.746 866.559 593.628 866.44 593.628L829.896 592.213C829.779 592.448 829.543 592.803 829.424 593.156L867.973 594.571C867.502 594.453 867.149 594.1 866.795 593.746ZM858.66 590.563L835.084 589.62C834.141 589.855 833.315 590.092 832.372 590.327L862.197 591.507C861.019 591.27 859.722 590.798 858.66 590.563Z" fill="#B3C9EE"/>
<path d="M592.717 341.207C611.915 347.842 627.118 360.266 636.387 375.123C657.048 354.468 676.207 323.17 689.136 285.831C715.498 209.693 667.881 124.124 667.881 124.124C667.881 124.124 577.523 161.999 551.161 238.138C538.232 275.478 533.938 311.913 537.407 340.91C553.883 334.951 573.52 334.571 592.717 341.207Z" fill="url(#paint5_linear_501_106)"/>
<path d="M648.831 237.02C653.918 238.778 658.33 241.603 661.907 245.156C660.413 232.379 651.813 220.946 638.83 216.458C620.762 210.213 601.048 219.784 594.796 237.838C590.304 250.81 593.987 264.629 603.118 273.699C602.533 268.694 603.037 263.483 604.797 258.4C611.048 240.347 630.764 230.775 648.831 237.02Z" fill="#EFEFEF"/>
<path d="M660.228 260.455C661.988 255.373 662.493 250.161 661.907 245.156C658.331 241.602 653.917 238.778 648.831 237.02C630.763 230.776 611.047 240.347 604.796 258.4C603.037 263.483 602.532 268.694 603.118 273.699C606.694 277.253 611.108 280.077 616.194 281.835C634.263 288.081 653.978 278.508 660.228 260.455Z" fill="white"/>
<path d="M673.218 290.405L630.891 371.254L663.229 415.849C685.014 366.233 687.437 324.801 673.218 290.405Z" fill="#FF4945"/>
<path d="M564.554 252.844L547.83 342.542L494.823 357.638C508.384 305.18 532.104 271.107 564.554 252.844Z" fill="#FF4945"/>
<path d="M666.054 133.766C665.741 133.83 665.409 133.813 665.086 133.702C664.125 133.37 663.616 132.322 663.948 131.362L683.633 74.5132C683.968 73.5529 685.019 73.0443 685.976 73.3748C686.937 73.7069 687.446 74.7551 687.114 75.7149L667.429 132.564C667.206 133.203 666.67 133.641 666.054 133.766Z" fill="#FF4945"/>
<path d="M605.69 486.809C605.634 486.821 605.575 486.824 605.515 486.818C605.177 486.789 604.926 486.493 604.957 486.155C607.332 458.576 607.98 433.406 607.059 404.545C607.049 404.208 607.314 403.925 607.653 403.912C607.992 403.903 608.276 404.167 608.287 404.505C609.21 433.417 608.56 458.631 606.18 486.258C606.156 486.537 605.952 486.756 605.69 486.809Z" fill="#5BABF2"/>
<path d="M499.979 450.269C499.827 450.3 499.661 450.273 499.52 450.18C499.236 449.995 499.157 449.615 499.343 449.331C514.563 426.137 529.647 405.911 548.251 383.756C548.468 383.493 548.856 383.461 549.117 383.68C549.376 383.897 549.41 384.284 549.191 384.544C530.621 406.663 515.564 426.852 500.37 450.005C500.276 450.146 500.134 450.238 499.979 450.269Z" fill="#5BABF2"/>
<path d="M593.837 501.921L601.384 514.071L613.544 506.53L605.997 494.381L593.837 501.921Z" fill="#FF4945"/>
<path d="M522.97 502.386L514.454 513.879L525.957 522.388L534.473 510.895L522.97 502.386Z" fill="#1B236D"/>
<path d="M501.572 411.806L506.716 420.086L515.003 414.947L509.86 406.667L501.572 411.806Z" fill="#5BABF2"/>
<path d="M533.45 495.962C533.347 495.983 533.235 495.978 533.13 495.941C532.809 495.829 532.639 495.481 532.75 495.161L560.825 414.074C560.937 413.753 561.287 413.585 561.606 413.694C561.927 413.806 562.097 414.154 561.986 414.474L533.911 495.561C533.834 495.774 533.654 495.921 533.45 495.962Z" fill="#5BABF2"/>
<path d="M577.799 472.475C577.728 472.489 577.654 472.492 577.58 472.479C577.245 472.426 577.017 472.111 577.07 471.776L580.459 450.577C580.512 450.243 580.828 450.012 581.163 450.069C581.499 450.122 581.726 450.436 581.673 450.772L578.284 471.971C578.241 472.229 578.042 472.425 577.799 472.475Z" fill="#5BABF2"/>
<path d="M635.582 289.068C628.474 290.508 621.076 290.012 614.187 287.63C603.899 284.073 595.612 276.727 590.855 266.943C586.097 257.161 585.436 246.111 588.995 235.831C593.689 222.273 605.356 212.077 619.442 209.223C626.551 207.782 633.949 208.279 640.837 210.659C662.076 218 673.376 241.237 666.03 262.457C661.335 276.018 649.668 286.213 635.582 289.068ZM621.883 221.246C612.033 223.242 603.877 230.368 600.597 239.843C598.11 247.026 598.572 254.748 601.897 261.585C605.222 268.421 611.013 273.555 618.202 276.041C623.018 277.706 628.185 278.054 633.145 277.048C642.995 275.052 651.151 267.925 654.432 258.45C659.566 243.621 651.668 227.384 636.827 222.255C632.008 220.589 626.842 220.241 621.883 221.246Z" fill="#FF4945"/>
<path d="M607.059 182.08C645.603 195.404 676.58 219.897 696.556 249.588C701.702 184.9 667.883 124.124 667.883 124.124C667.883 124.124 625.757 141.788 590.641 177.227C596.12 178.582 601.599 180.194 607.059 182.08Z" fill="#5BABF2"/>
<path d="M695.076 196.117C687.42 153.1 669.194 120.334 669.194 120.334C669.194 120.334 634.6 134.842 601.977 163.936L695.076 196.117Z" fill="url(#paint6_linear_501_106)"/>
<path d="M349.877 338.403C293.837 349.007 258.035 332.341 220.544 342.789C220.544 342.789 200.827 252.831 183.597 213.759C195.122 196.442 222.041 186.838 241.384 179.334C272.315 167.338 300.698 148.883 324.238 125.475C354.413 158.713 417.418 232.717 417.418 232.717C389.691 256.594 378.526 299.693 349.877 338.403Z" fill="#151A4F"/>
<path d="M486.541 81.4073L295.684 259.417L54.4519 299.551L260.968 107.661L486.541 81.4073Z" fill="#23286B"/>
<path d="M293.591 166.68L265.601 192.789L230.219 198.677L260.507 170.53L293.591 166.68Z" fill="#428DFC"/>
<path d="M42.8379 392.668C60.8656 381.519 75.5906 364.726 83.6484 345.277C86.8785 337.483 89.1282 329.241 91.3091 321.272C93.0107 315.046 94.7723 308.61 96.9801 302.463C108.45 270.543 134.117 241.447 169.393 220.406C202.111 200.912 238.972 189.976 273.932 181.065C274.609 180.891 275.01 180.209 274.841 179.539C274.67 178.867 273.99 178.461 273.316 178.633C238.172 187.592 201.103 198.592 168.11 218.252C132.419 239.54 106.284 269.149 94.6189 301.617C92.3787 307.856 90.6032 314.342 88.8886 320.614C86.7298 328.507 84.4957 336.674 81.3259 344.321C70.1187 371.366 45.6782 393.16 17.5476 401.2C9.46112 403.512 3.77079 403.327 -0.366689 400.615C-2.95249 398.92 -4.58894 395.247 -4.25346 391.872C-4.11295 390.467 -3.49842 387.963 -0.918745 386.911C-0.290442 386.654 0.0337837 385.919 -0.223252 385.28C-0.48585 384.637 -1.21623 384.328 -1.85603 384.589C-4.64408 385.704 -6.41459 388.279 -6.75029 391.637C-7.177 395.956 -5.11988 400.512 -1.74031 402.725C4.55136 406.844 12.6761 405.207 18.2388 403.619C26.8591 401.152 35.1506 397.422 42.8379 392.668Z" fill="#428DFC"/>
<path d="M38.4816 376.336C49.5311 369.502 59.7099 360.298 67.7545 352.573C79.0957 341.686 87.634 328.485 93.8533 312.215C94.1038 311.568 93.7775 310.843 93.1312 310.592C92.4783 310.342 91.7566 310.671 91.51 311.32C85.4257 327.234 77.0877 340.136 66.0211 350.76C56.1537 360.229 43.0572 371.943 29.2167 378.571C17.5581 384.149 8.70409 379.928 4.66419 374.615C1.7878 370.838 1.34257 366.593 3.54849 364.055C4.00582 363.531 3.94648 362.738 3.42646 362.285C2.90087 361.829 2.11646 361.884 1.65569 362.413C-1.35107 365.877 -0.945166 371.395 2.67111 376.144C7.64177 382.681 18.1152 386.669 30.3013 380.837C33.0657 379.516 35.7988 377.995 38.4816 376.336Z" fill="#428DFC"/>
<path d="M55.9008 408.023C70.0387 399.279 81.6899 386.432 88.8128 371.42C98.5807 350.832 100.671 330.877 95.0304 312.117C94.8303 311.452 94.1297 311.08 93.4685 311.279C92.7989 311.486 92.4306 312.182 92.6277 312.842C98.0859 330.989 96.0409 350.337 86.5505 370.344C77.7525 388.877 61.8454 404.016 42.9122 411.879C42.2895 412.141 41.9643 412.879 42.2319 413.519C42.4945 414.162 43.2293 414.461 43.8716 414.198C48.0324 412.472 52.0608 410.397 55.9008 408.023Z" fill="#428DFC"/>
<path d="M697.325 451.25L650.086 493.238L682.625 530.25L729.864 488.262L697.325 451.25Z" fill="url(#paint7_linear_501_106)"/>
<path d="M650.086 493.238L689.977 490.752L697.325 451.25L650.086 493.238Z" fill="#EEEEEE"/>
<path d="M450.308 369.438L390.031 388.035L404.442 435.262L464.719 416.665L450.308 369.438Z" fill="url(#paint8_linear_501_106)"/>
<path d="M390.031 388.035L427.376 402.353L450.308 369.438L390.031 388.035Z" fill="#EEEEEE"/>
<path d="M473.43 468.548L417.221 508.589L448.27 552.602L504.479 512.561L473.43 468.548Z" fill="url(#paint9_linear_501_106)"/>
<path d="M417.221 508.589L460.852 510.578L473.43 468.548L417.221 508.589Z" fill="#EEEEEE"/>
<path d="M441.951 466.581C436.326 468.04 430.731 469.141 425.164 469.888C423.74 463.985 422.59 458.344 421.857 453.101C427.406 451.759 433.001 450.657 438.644 449.794C440.03 455.152 441.112 460.764 441.951 466.581Z" fill="#A1C3FC"/>
<path d="M712.4 421.85L702.65 412.1L712.4 402.35L722.15 412.1L712.4 421.85Z" fill="#A1C3FC"/>
<path d="M645.571 427.05L642.795 428.483H646.3L645.571 427.05Z" fill="#A1C3FC"/>
<path d="M633.087 433.496H648.85L647.508 430.858H638.197L633.087 433.496Z" fill="#A1C3FC"/>
<path d="M623.379 438.509H651.4L650.058 435.87H628.488L623.379 438.509Z" fill="#A1C3FC"/>
<path d="M624.692 443.521H653.95L652.608 440.883H623.35L624.692 443.521Z" fill="#A1C3FC"/>
<path d="M627.242 448.534H656.5L655.158 445.896H625.9L627.242 448.534Z" fill="#A1C3FC"/>
<path d="M629.792 453.547H650.832L655.942 450.908H628.45L629.792 453.547Z" fill="#A1C3FC"/>
<path d="M632.342 458.559H641.124L646.234 455.921H631L632.342 458.559Z" fill="#A1C3FC"/>
<path d="M634.169 462.15L636.525 460.933H633.55L634.169 462.15Z" fill="#A1C3FC"/>
<path d="M526.143 363.35L524.401 364.252H526.6L526.143 363.35Z" fill="#A1C3FC"/>
<path d="M518.309 367.409H528.2L527.358 365.748H521.516L518.309 367.409Z" fill="#A1C3FC"/>
<path d="M512.218 370.565H529.8L528.958 368.904H515.424L512.218 370.565Z" fill="#A1C3FC"/>
<path d="M513.042 373.721H531.4L530.558 372.06H512.2L513.042 373.721Z" fill="#A1C3FC"/>
<path d="M514.642 376.877H533L532.158 375.216H513.8L514.642 376.877Z" fill="#A1C3FC"/>
<path d="M516.242 380.033H529.444L532.65 378.372H515.4L516.242 380.033Z" fill="#A1C3FC"/>
<path d="M517.842 383.189H523.352L526.558 381.528H517L517.842 383.189Z" fill="#A1C3FC"/>
<path d="M518.988 385.45L520.467 384.684H518.6L518.988 385.45Z" fill="#A1C3FC"/>
<path d="M640.575 538.85L633.75 532.025L640.575 525.2L647.4 532.025L640.575 538.85Z" fill="#A1C3FC"/>
<path d="M481.965 386.465C478.026 387.564 474.104 388.41 470.197 389.006C469.119 384.871 468.238 380.917 467.655 377.238C471.541 376.223 475.464 375.376 479.423 374.697C480.467 378.449 481.301 382.383 481.965 386.465Z" fill="#E94A47"/>
<path d="M727.22 452.907C723.997 453.098 720.829 453.097 717.715 452.907C717.572 449.536 717.551 446.338 717.715 443.402C720.883 443.266 724.051 443.266 727.22 443.402C727.4 446.471 727.387 449.646 727.22 452.907Z" fill="#E94A47"/>
<path d="M400.524 506.9C397.945 508.457 395.327 509.832 392.671 511.026C391.09 508.303 389.684 505.67 388.545 503.173C391.104 501.685 393.722 500.31 396.398 499.047C397.88 501.504 399.247 504.133 400.524 506.9Z" fill="#E94A47"/>
<path d="M586.943 426.018C584.558 428.502 582.077 430.797 579.5 432.903C576.947 430.367 574.614 427.878 572.615 425.461C574.998 423.059 577.479 420.764 580.058 418.576C582.422 420.848 584.712 423.344 586.943 426.018Z" fill="#A1C3FC"/>
</g>
<defs>
<linearGradient id="paint0_linear_501_106" x1="733.753" y1="402.509" x2="884.459" y2="402.509" gradientUnits="userSpaceOnUse">
<stop stop-color="#B9D3FD"/>
<stop offset="1" stop-color="#89B3F4"/>
</linearGradient>
<linearGradient id="paint1_linear_501_106" x1="782.95" y1="437.671" x2="940.155" y2="437.671" gradientUnits="userSpaceOnUse">
<stop stop-color="#DEEAFE"/>
<stop offset="1" stop-color="#E9F1FE"/>
</linearGradient>
<linearGradient id="paint2_linear_501_106" x1="237.412" y1="428.667" x2="815.279" y2="428.667" gradientUnits="userSpaceOnUse">
<stop stop-color="#EEEEEE"/>
<stop offset="1" stop-color="#D6D7D8"/>
</linearGradient>
<linearGradient id="paint3_linear_501_106" x1="296.323" y1="534.179" x2="149.989" y2="574.396" gradientUnits="userSpaceOnUse">
<stop stop-color="#B9D3FD"/>
<stop offset="1" stop-color="#89B3F4"/>
</linearGradient>
<linearGradient id="paint4_linear_501_106" x1="258.039" y1="581.494" x2="105.378" y2="623.45" gradientUnits="userSpaceOnUse">
<stop stop-color="#DEEAFE"/>
<stop offset="1" stop-color="#E9F1FE"/>
</linearGradient>
<linearGradient id="paint5_linear_501_106" x1="558.403" y1="217.223" x2="696.352" y2="264.992" gradientUnits="userSpaceOnUse">
<stop stop-color="#92C4FE"/>
<stop offset="1" stop-color="#5BABF2"/>
</linearGradient>
<linearGradient id="paint6_linear_501_106" x1="612.311" y1="134.09" x2="705.393" y2="166.323" gradientUnits="userSpaceOnUse">
<stop stop-color="#FF4945"/>
<stop offset="1" stop-color="#F92424"/>
</linearGradient>
<linearGradient id="paint7_linear_501_106" x1="711.641" y1="513.661" x2="668.458" y2="468.498" gradientUnits="userSpaceOnUse">
<stop offset="0.0898" stop-color="#EEEEEE"/>
<stop offset="0.8178" stop-color="#D6D7D8"/>
</linearGradient>
<linearGradient id="paint8_linear_501_106" x1="437.683" y1="432.218" x2="417.053" y2="373.102" gradientUnits="userSpaceOnUse">
<stop offset="0.0898" stop-color="#EEEEEE"/>
<stop offset="0.8178" stop-color="#D6D7D8"/>
</linearGradient>
<linearGradient id="paint9_linear_501_106" x1="481.725" y1="537.999" x2="440.102" y2="483.852" gradientUnits="userSpaceOnUse">
<stop offset="0.0898" stop-color="#EEEEEE"/>
<stop offset="0.8178" stop-color="#D6D7D8"/>
</linearGradient>
<clipPath id="clip0_501_106">
<rect width="1040" height="780" fill="white"/>
</clipPath>
</defs>
</svg>
