<svg width="313" height="76" viewBox="0 0 313 76" fill="none" xmlns="http://www.w3.org/2000/svg">
<path d="M309.301 0.5H3.64667C1.93578 0.5 0.548828 1.84315 0.548828 3.5V72.5C0.548828 74.1569 1.93578 75.5 3.64667 75.5H309.301C311.011 75.5 312.398 74.1569 312.398 72.5V3.5C312.398 1.84315 311.011 0.5 309.301 0.5Z" fill="#FAFAFA" stroke="#D6D6D6"/>
<path d="M243.319 53.8751V48.9121H244.076V49.6645C244.269 49.3124 244.446 49.0803 244.608 48.9682C244.774 48.856 244.954 48.7999 245.151 48.7999C245.434 48.7999 245.722 48.8903 246.015 49.071L245.725 49.8514C245.52 49.7299 245.314 49.6692 245.108 49.6692C244.925 49.6692 244.76 49.7252 244.613 49.8374C244.467 49.9464 244.362 50.0991 244.3 50.2954C244.206 50.5945 244.16 50.9216 244.16 51.2768V53.8751H243.319ZM249.913 52.2769L250.782 52.3843C250.645 52.8922 250.391 53.2863 250.02 53.5667C249.649 53.8471 249.176 53.9873 248.599 53.9873C247.873 53.9873 247.297 53.7645 246.87 53.319C246.447 52.8704 246.235 52.2426 246.235 51.4357C246.235 50.6007 246.45 49.9527 246.88 49.4916C247.31 49.0305 247.867 48.7999 248.553 48.7999C249.216 48.7999 249.758 49.0258 250.179 49.4776C250.6 49.9293 250.81 50.5649 250.81 51.3843C250.81 51.4341 250.808 51.5089 250.805 51.6086H247.104C247.135 52.1538 247.289 52.5713 247.567 52.861C247.844 53.1508 248.19 53.2956 248.604 53.2956C248.913 53.2956 249.176 53.2146 249.394 53.0526C249.612 52.8906 249.785 52.632 249.913 52.2769ZM247.151 50.9169H249.922C249.885 50.4994 249.779 50.1863 249.604 49.9776C249.336 49.6536 248.989 49.4916 248.562 49.4916C248.176 49.4916 247.85 49.6209 247.585 49.8795C247.324 50.138 247.179 50.4839 247.151 50.9169ZM256.838 51.473L257.745 51.702C257.555 52.4467 257.212 53.0152 256.717 53.4078C256.225 53.7972 255.622 53.992 254.908 53.992C254.17 53.992 253.569 53.8424 253.104 53.5433C252.643 53.2411 252.291 52.8049 252.048 52.2348C251.808 51.6647 251.688 51.0525 251.688 50.3982C251.688 49.6847 251.824 49.0632 252.095 48.5335C252.369 48.0008 252.757 47.5973 253.259 47.3232C253.763 47.0459 254.318 46.9072 254.922 46.9072C255.608 46.9072 256.184 47.0817 256.651 47.4306C257.119 47.7796 257.444 48.2703 257.628 48.9027L256.736 49.113C256.577 48.6145 256.346 48.2516 256.044 48.0242C255.742 47.7967 255.362 47.683 254.904 47.683C254.377 47.683 253.936 47.8092 253.581 48.0615C253.229 48.3139 252.981 48.6535 252.838 49.0803C252.695 49.504 252.623 49.9418 252.623 50.3935C252.623 50.9761 252.707 51.4855 252.875 51.9217C253.047 52.3547 253.312 52.6788 253.67 52.8937C254.028 53.1087 254.416 53.2162 254.834 53.2162C255.341 53.2162 255.771 53.0698 256.123 52.7769C256.475 52.484 256.714 52.0494 256.838 51.473ZM258.114 53.8751L260.745 47.0241H261.722L264.526 53.8751H263.493L262.694 51.8002H259.829L259.077 53.8751H258.114ZM260.091 51.0618H262.414L261.699 49.1644C261.481 48.5881 261.319 48.1145 261.213 47.7438C261.125 48.183 261.002 48.6192 260.843 49.0523L260.091 51.0618ZM265.25 53.8751V47.0241H267.835C268.29 47.0241 268.637 47.0459 268.877 47.0895C269.213 47.1456 269.495 47.2531 269.723 47.412C269.95 47.5677 270.132 47.7874 270.269 48.0709C270.41 48.3544 270.48 48.666 270.48 49.0055C270.48 49.5882 270.294 50.082 269.924 50.487C269.553 50.8889 268.883 51.0898 267.914 51.0898H266.157V53.8751H265.25ZM266.157 50.2814H267.928C268.514 50.2814 268.93 50.1723 269.176 49.9542C269.422 49.7361 269.545 49.4293 269.545 49.0336C269.545 48.747 269.472 48.5024 269.325 48.2999C269.182 48.0943 268.992 47.9587 268.755 47.8933C268.603 47.8528 268.321 47.8326 267.909 47.8326H266.157V50.2814ZM273.377 53.8751V47.8326H271.12V47.0241H276.55V47.8326H274.284V53.8751H273.377ZM282.373 51.473L283.28 51.702C283.09 52.4467 282.747 53.0152 282.252 53.4078C281.76 53.7972 281.157 53.992 280.443 53.992C279.705 53.992 279.104 53.8424 278.639 53.5433C278.178 53.2411 277.826 52.8049 277.583 52.2348C277.343 51.6647 277.223 51.0525 277.223 50.3982C277.223 49.6847 277.359 49.0632 277.63 48.5335C277.904 48.0008 278.292 47.5973 278.794 47.3232C279.298 47.0459 279.853 46.9072 280.457 46.9072C281.143 46.9072 281.719 47.0817 282.186 47.4306C282.654 47.7796 282.979 48.2703 283.163 48.9027L282.27 49.113C282.112 48.6145 281.881 48.2516 281.579 48.0242C281.277 47.7967 280.897 47.683 280.439 47.683C279.912 47.683 279.471 47.8092 279.116 48.0615C278.764 48.3139 278.516 48.6535 278.373 49.0803C278.23 49.504 278.158 49.9418 278.158 50.3935C278.158 50.9761 278.242 51.4855 278.41 51.9217C278.582 52.3547 278.847 52.6788 279.205 52.8937C279.563 53.1087 279.951 53.2162 280.368 53.2162C280.876 53.2162 281.306 53.0698 281.658 52.7769C282.01 52.484 282.249 52.0494 282.373 51.473ZM284.43 53.8751V47.0241H285.336V49.8374H288.897V47.0241H289.804V53.8751H288.897V50.6459H285.336V53.8751H284.43ZM290.566 53.8751L293.197 47.0241H294.173L296.977 53.8751H295.945L295.145 51.8002H292.281L291.528 53.8751H290.566ZM292.542 51.0618H294.865L294.15 49.1644C293.932 48.5881 293.77 48.1145 293.664 47.7438C293.577 48.183 293.454 48.6192 293.295 49.0523L292.542 51.0618Z" fill="#A5A5A5"/>
<path d="M243.325 64.8329V59.0023H245.525C245.912 59.0023 246.208 59.0208 246.412 59.0579C246.698 59.1057 246.938 59.1972 247.132 59.3324C247.325 59.465 247.48 59.6519 247.597 59.8932C247.716 60.1345 247.776 60.3996 247.776 60.6886C247.776 61.1845 247.618 61.6047 247.303 61.9494C246.987 62.2915 246.417 62.4625 245.592 62.4625H244.097V64.8329H243.325ZM244.097 61.7744H245.604C246.103 61.7744 246.457 61.6816 246.666 61.496C246.876 61.3104 246.981 61.0492 246.981 60.7125C246.981 60.4686 246.918 60.2604 246.794 60.0881C246.672 59.9131 246.51 59.7977 246.308 59.742C246.178 59.7076 245.938 59.6903 245.588 59.6903H244.097V61.7744ZM248.659 64.8329V60.6091H249.303V61.2494C249.468 60.9498 249.619 60.7523 249.757 60.6568C249.897 60.5614 250.051 60.5136 250.218 60.5136C250.459 60.5136 250.705 60.5905 250.954 60.7443L250.707 61.4085C250.532 61.3051 250.357 61.2534 250.182 61.2534C250.026 61.2534 249.885 61.3011 249.761 61.3966C249.636 61.4894 249.547 61.6193 249.494 61.7864C249.415 62.0409 249.375 62.3193 249.375 62.6216V64.8329H248.659ZM251.383 59.8256V59.0023H252.099V59.8256H251.383ZM251.383 64.8329V60.6091H252.099V64.8329H251.383ZM254.366 64.8329L252.76 60.6091H253.515L254.422 63.1386C254.52 63.4117 254.61 63.6954 254.692 63.9898C254.756 63.767 254.845 63.4992 254.959 63.1864L255.898 60.6091H256.633L255.035 64.8329H254.366ZM260.022 64.3119C259.757 64.5373 259.501 64.6964 259.254 64.7892C259.01 64.882 258.748 64.9284 258.467 64.9284C258.003 64.9284 257.646 64.8157 257.397 64.5903C257.148 64.3623 257.023 64.072 257.023 63.7193C257.023 63.5125 257.07 63.3242 257.162 63.1545C257.258 62.9822 257.381 62.8443 257.532 62.7409C257.686 62.6375 257.858 62.5593 258.049 62.5062C258.19 62.4691 258.402 62.4333 258.686 62.3989C259.264 62.3299 259.689 62.2477 259.962 62.1523C259.965 62.0542 259.966 61.9918 259.966 61.9653C259.966 61.6737 259.899 61.4682 259.763 61.3489C259.581 61.1871 259.309 61.1062 258.948 61.1062C258.611 61.1062 258.362 61.1659 258.2 61.2852C258.041 61.4019 257.923 61.61 257.846 61.9097L257.146 61.8142C257.21 61.5146 257.315 61.2733 257.461 61.0903C257.606 60.9047 257.817 60.7629 258.093 60.6648C258.369 60.564 258.688 60.5136 259.052 60.5136C259.412 60.5136 259.705 60.5561 259.931 60.6409C260.156 60.7257 260.322 60.8331 260.428 60.9631C260.534 61.0903 260.608 61.2521 260.65 61.4483C260.674 61.5703 260.686 61.7903 260.686 62.1085V63.0631C260.686 63.7286 260.701 64.1502 260.73 64.3278C260.762 64.5028 260.823 64.6712 260.913 64.8329H260.165C260.091 64.6845 260.043 64.5108 260.022 64.3119ZM259.962 62.7131C259.703 62.8191 259.313 62.9093 258.793 62.9835C258.499 63.0259 258.291 63.0737 258.169 63.1267C258.047 63.1797 257.953 63.2579 257.886 63.3614C257.82 63.4621 257.787 63.5748 257.787 63.6994C257.787 63.8903 257.858 64.0494 258.002 64.1767C258.147 64.304 258.36 64.3676 258.638 64.3676C258.914 64.3676 259.159 64.3079 259.374 64.1886C259.588 64.0667 259.746 63.9009 259.847 63.6915C259.924 63.5297 259.962 63.2911 259.962 62.9756V62.7131ZM264.556 63.2858L265.26 63.3773C265.183 63.8625 264.986 64.243 264.667 64.5187C264.352 64.7918 263.963 64.9284 263.502 64.9284C262.924 64.9284 262.459 64.7401 262.106 64.3636C261.756 63.9845 261.581 63.4422 261.581 62.7369C261.581 62.2809 261.657 61.8818 261.808 61.5398C261.959 61.1977 262.188 60.9418 262.496 60.7722C262.806 60.5998 263.143 60.5136 263.506 60.5136C263.965 60.5136 264.34 60.6303 264.632 60.8636C264.923 61.0943 265.11 61.4231 265.192 61.85L264.496 61.9574C264.43 61.6737 264.312 61.4602 264.142 61.317C263.975 61.1739 263.773 61.1023 263.534 61.1023C263.173 61.1023 262.88 61.2322 262.655 61.492C262.43 61.7492 262.317 62.1576 262.317 62.717C262.317 63.2845 262.426 63.6968 262.643 63.954C262.86 64.2112 263.144 64.3398 263.494 64.3398C263.775 64.3398 264.01 64.2536 264.198 64.0812C264.386 63.9089 264.506 63.6437 264.556 63.2858ZM265.841 66.4597L265.761 65.7875C265.918 65.8299 266.054 65.8511 266.171 65.8511C266.33 65.8511 266.457 65.8246 266.553 65.7716C266.648 65.7186 266.726 65.6443 266.787 65.5489C266.832 65.4773 266.905 65.2996 267.006 65.0159C267.019 64.9761 267.041 64.9178 267.07 64.8409L265.467 60.6091H266.238L267.117 63.0551C267.231 63.3653 267.334 63.6915 267.424 64.0335C267.506 63.7047 267.604 63.3839 267.718 63.071L268.621 60.6091H269.337L267.73 64.9045C267.558 65.3686 267.424 65.6881 267.328 65.8631C267.201 66.099 267.055 66.2714 266.891 66.3801C266.726 66.4915 266.53 66.5472 266.302 66.5472C266.164 66.5472 266.01 66.518 265.841 66.4597ZM271.934 63.0829V62.3631H274.133V63.0829H271.934ZM278.616 64.8329V59.6903H276.695V59.0023H281.316V59.6903H279.387V64.8329H278.616ZM284.005 63.4727L284.745 63.5642C284.628 63.9964 284.412 64.3318 284.096 64.5704C283.781 64.8091 283.378 64.9284 282.887 64.9284C282.27 64.9284 281.779 64.7388 281.416 64.3597C281.055 63.9778 280.875 63.4436 280.875 62.7568C280.875 62.0462 281.058 61.4947 281.424 61.1023C281.79 60.7098 282.264 60.5136 282.848 60.5136C283.412 60.5136 283.874 60.7059 284.232 61.0903C284.59 61.4748 284.769 62.0157 284.769 62.7131C284.769 62.7555 284.767 62.8191 284.765 62.904H281.615C281.641 63.368 281.772 63.7233 282.008 63.9699C282.244 64.2165 282.539 64.3398 282.891 64.3398C283.154 64.3398 283.378 64.2708 283.563 64.1329C283.749 63.9951 283.896 63.775 284.005 63.4727ZM281.654 62.3153H284.013C283.981 61.96 283.891 61.6936 283.742 61.5159C283.514 61.2401 283.219 61.1023 282.856 61.1023C282.527 61.1023 282.25 61.2123 282.024 61.4324C281.802 61.6525 281.678 61.9468 281.654 62.3153ZM285.64 64.8329V60.6091H286.284V61.2494C286.448 60.9498 286.599 60.7523 286.737 60.6568C286.878 60.5614 287.032 60.5136 287.199 60.5136C287.44 60.5136 287.685 60.5905 287.935 60.7443L287.688 61.4085C287.513 61.3051 287.338 61.2534 287.163 61.2534C287.006 61.2534 286.866 61.3011 286.741 61.3966C286.617 61.4894 286.528 61.6193 286.475 61.7864C286.395 62.0409 286.356 62.3193 286.356 62.6216V64.8329H285.64ZM288.36 64.8329V60.6091H289V61.2017C289.133 60.9949 289.309 60.8292 289.529 60.7045C289.749 60.5773 290 60.5136 290.281 60.5136C290.594 60.5136 290.85 60.5786 291.049 60.7085C291.25 60.8384 291.392 61.0201 291.474 61.2534C291.808 60.7602 292.243 60.5136 292.779 60.5136C293.198 60.5136 293.52 60.6303 293.745 60.8636C293.971 61.0943 294.083 61.4509 294.083 61.9335V64.8329H293.371V62.1722C293.371 61.8858 293.348 61.6803 293.3 61.5557C293.255 61.4284 293.171 61.3263 293.049 61.2494C292.927 61.1725 292.784 61.1341 292.62 61.1341C292.323 61.1341 292.076 61.2335 291.88 61.4324C291.684 61.6286 291.586 61.9441 291.586 62.379V64.8329H290.87V62.0886C290.87 61.7704 290.811 61.5318 290.695 61.3727C290.578 61.2136 290.387 61.1341 290.122 61.1341C289.921 61.1341 289.734 61.1871 289.561 61.2932C289.392 61.3992 289.268 61.5543 289.191 61.7585C289.114 61.9627 289.076 62.257 289.076 62.6415V64.8329H288.36ZM294.859 63.5722L295.567 63.4608C295.607 63.7445 295.717 63.9619 295.897 64.1131C296.08 64.2642 296.335 64.3398 296.661 64.3398C296.989 64.3398 297.233 64.2735 297.392 64.1409C297.552 64.0057 297.631 63.8479 297.631 63.6676C297.631 63.5059 297.561 63.3786 297.42 63.2858C297.322 63.2222 297.078 63.1413 296.688 63.0432C296.163 62.9106 295.799 62.7966 295.595 62.7011C295.393 62.603 295.239 62.4691 295.133 62.2994C295.03 62.1271 294.978 61.9375 294.978 61.7307C294.978 61.5424 295.021 61.3687 295.106 61.2097C295.193 61.0479 295.311 60.914 295.46 60.8079C295.571 60.7257 295.722 60.6568 295.913 60.6011C296.106 60.5428 296.313 60.5136 296.533 60.5136C296.865 60.5136 297.155 60.5614 297.404 60.6568C297.656 60.7523 297.842 60.8822 297.961 61.0466C298.081 61.2083 298.163 61.4257 298.208 61.6989L297.508 61.7943C297.476 61.5769 297.383 61.4072 297.229 61.2852C297.078 61.1632 296.863 61.1023 296.585 61.1023C296.256 61.1023 296.022 61.1566 295.881 61.2653C295.741 61.374 295.67 61.5013 295.67 61.6472C295.67 61.74 295.699 61.8235 295.758 61.8977C295.816 61.9746 295.908 62.0382 296.032 62.0886C296.104 62.1151 296.315 62.1761 296.665 62.2716C297.171 62.4068 297.524 62.5182 297.723 62.6057C297.924 62.6905 298.082 62.8151 298.196 62.9795C298.31 63.1439 298.367 63.3481 298.367 63.592C298.367 63.8307 298.297 64.0561 298.156 64.2682C298.018 64.4776 297.818 64.6407 297.556 64.7574C297.293 64.8714 296.996 64.9284 296.665 64.9284C296.116 64.9284 295.697 64.8144 295.408 64.5864C295.121 64.3583 294.938 64.0203 294.859 63.5722Z" fill="#A5A5A5"/>
<g filter="url(#filter0_d_8_25)">
<path d="M271.399 11C278.874 11 282.81 15.926 283.206 16.4467L286.062 13.612L286.222 25.7091L273.969 25.6108L277.924 21.6874C277.57 21.188 275.595 18.6553 271.616 18.2744C270.229 18.1416 268.982 18.436 267.924 18.9023L263.514 13.0418C265.474 11.9423 268.112 11 271.399 11Z" fill="black"/>
</g>
<path d="M271.399 11C278.874 11 282.81 15.926 283.206 16.4467L286.062 13.612L286.222 25.7091L273.969 25.6108L277.924 21.6874C277.57 21.188 275.595 18.6553 271.616 18.2744C270.229 18.1416 268.982 18.436 267.924 18.9023L263.514 13.0418C265.474 11.9423 268.112 11 271.399 11Z" fill="#2B4CB9"/>
<g filter="url(#filter1_d_8_25)">
<path d="M270.652 11.0408L270.55 22.907L266.546 19.12C266.093 19.415 263.398 21.3265 262.998 25.2437C262.893 26.2698 263.046 27.2166 263.338 28.0633L255.751 28.2791C255.583 27.4005 255.486 26.4584 255.486 25.4537C255.486 18.0949 260.743 14.2777 261.133 14.0042L258.16 11.1957L270.652 11.0408Z" fill="black"/>
</g>
<path d="M270.652 11.0408L270.55 22.907L266.546 19.12C266.093 19.415 263.398 21.3265 262.998 25.2437C262.893 26.2698 263.046 27.2166 263.338 28.0633L255.751 28.2791C255.583 27.4005 255.486 26.4584 255.486 25.4537C255.486 18.0949 260.743 14.2777 261.133 14.0042L258.16 11.1957L270.652 11.0408Z" fill="#5A96F6"/>
<g filter="url(#filter2_d_8_25)">
<path d="M255.542 26.1727L267.796 26.271L263.841 30.1944C264.194 30.6938 266.169 33.2265 270.148 33.6074C274.566 34.0303 277.563 30.1196 277.563 30.1196L282.41 35.4505C282.41 35.4505 278.257 40.8818 270.365 40.8818C262.89 40.8818 258.954 35.9558 258.559 35.4351L255.702 38.2698L255.542 26.1727Z" fill="black"/>
</g>
<path d="M255.542 26.1727L267.796 26.271L263.841 30.1944C264.194 30.6938 266.169 33.2265 270.148 33.6074C274.566 34.0303 277.563 30.1196 277.563 30.1196L282.41 35.4505C282.41 35.4505 278.257 40.8818 270.365 40.8818C262.89 40.8818 258.954 35.9558 258.559 35.4351L255.702 38.2698L255.542 26.1727Z" fill="#BEBEBE"/>
<path d="M56.292 42H54.9795V32.0469H56.292V42ZM58.5889 34.8496L57.8711 34.3574C58.2949 33.765 58.5137 33.1406 58.5273 32.4844V31.5H59.7783V32.3887C59.7738 32.8444 59.6598 33.3001 59.4365 33.7559C59.2178 34.207 58.9352 34.5716 58.5889 34.8496ZM62.3555 34.6035L62.3896 35.4238C62.932 34.7858 63.6634 34.4668 64.584 34.4668C65.6185 34.4668 66.3226 34.8633 66.6963 35.6562C66.9424 35.3008 67.2614 35.0137 67.6533 34.7949C68.0498 34.5762 68.5169 34.4668 69.0547 34.4668C70.6771 34.4668 71.502 35.3258 71.5293 37.0439V42H70.2646V37.1191C70.2646 36.5905 70.1439 36.1963 69.9023 35.9365C69.6608 35.6722 69.2552 35.54 68.6855 35.54C68.2161 35.54 67.8265 35.6813 67.5166 35.9639C67.2067 36.2419 67.0267 36.6178 66.9766 37.0918V42H65.7051V37.1533C65.7051 36.0778 65.1787 35.54 64.126 35.54C63.2965 35.54 62.7292 35.8932 62.4238 36.5996V42H61.1592V34.6035H62.3555ZM78.1123 34.6035L78.1533 35.5332C78.7184 34.8223 79.4567 34.4668 80.3682 34.4668C81.9313 34.4668 82.7197 35.3486 82.7334 37.1123V42H81.4688V37.1055C81.4642 36.5723 81.3411 36.1781 81.0996 35.9229C80.8626 35.6676 80.4912 35.54 79.9854 35.54C79.5752 35.54 79.2152 35.6494 78.9053 35.8682C78.5954 36.0869 78.3538 36.374 78.1807 36.7295V42H76.916V34.6035H78.1123ZM84.3057 38.2334C84.3057 37.5088 84.4469 36.8571 84.7295 36.2783C85.0166 35.6995 85.4131 35.2529 85.9189 34.9385C86.4294 34.624 87.0104 34.4668 87.6621 34.4668C88.6693 34.4668 89.4827 34.8154 90.1025 35.5127C90.7269 36.21 91.0391 37.1374 91.0391 38.2949V38.3838C91.0391 39.1038 90.9001 39.751 90.6221 40.3252C90.3486 40.8949 89.9544 41.3392 89.4395 41.6582C88.929 41.9772 88.3411 42.1367 87.6758 42.1367C86.6732 42.1367 85.8597 41.7881 85.2354 41.0908C84.6156 40.3936 84.3057 39.4707 84.3057 38.3223V38.2334ZM85.5771 38.3838C85.5771 39.2041 85.7663 39.8626 86.1445 40.3594C86.5273 40.8561 87.0378 41.1045 87.6758 41.1045C88.3184 41.1045 88.8288 40.8538 89.207 40.3525C89.5853 39.8467 89.7744 39.1403 89.7744 38.2334C89.7744 37.4222 89.5807 36.766 89.1934 36.2646C88.8105 35.7588 88.3001 35.5059 87.6621 35.5059C87.0378 35.5059 86.5342 35.7542 86.1514 36.251C85.7686 36.7477 85.5771 37.4587 85.5771 38.3838ZM94.3408 32.8125V34.6035H95.7217V35.5811H94.3408V40.168C94.3408 40.4642 94.4023 40.6875 94.5254 40.8379C94.6484 40.9837 94.8581 41.0566 95.1543 41.0566C95.3001 41.0566 95.5007 41.0293 95.7559 40.9746V42C95.4232 42.0911 95.0996 42.1367 94.7852 42.1367C94.2201 42.1367 93.7939 41.9658 93.5068 41.624C93.2197 41.2822 93.0762 40.7969 93.0762 40.168V35.5811H91.7295V34.6035H93.0762V32.8125H94.3408ZM105.244 42C105.171 41.8542 105.112 41.5944 105.066 41.2207C104.479 41.8314 103.777 42.1367 102.961 42.1367C102.232 42.1367 101.632 41.9316 101.163 41.5215C100.698 41.1068 100.466 40.5827 100.466 39.9492C100.466 39.179 100.757 38.582 101.341 38.1582C101.929 37.7298 102.754 37.5156 103.815 37.5156H105.046V36.9346C105.046 36.4925 104.914 36.1416 104.649 35.8818C104.385 35.6175 103.995 35.4854 103.48 35.4854C103.029 35.4854 102.651 35.5993 102.346 35.8271C102.04 36.055 101.888 36.3307 101.888 36.6543H100.616C100.616 36.2852 100.746 35.9297 101.006 35.5879C101.27 35.2415 101.626 34.9681 102.072 34.7676C102.523 34.5671 103.018 34.4668 103.556 34.4668C104.408 34.4668 105.076 34.681 105.559 35.1094C106.042 35.5332 106.292 36.1188 106.311 36.8662V40.2705C106.311 40.9495 106.397 41.4896 106.57 41.8906V42H105.244ZM103.146 41.0361C103.542 41.0361 103.918 40.9336 104.273 40.7285C104.629 40.5234 104.886 40.2568 105.046 39.9287V38.4111H104.055C102.505 38.4111 101.73 38.8646 101.73 39.7715C101.73 40.168 101.863 40.4779 102.127 40.7012C102.391 40.9245 102.731 41.0361 103.146 41.0361ZM115.341 35.7383C115.149 35.7064 114.942 35.6904 114.719 35.6904C113.889 35.6904 113.326 36.0436 113.03 36.75V42H111.766V34.6035H112.996L113.017 35.458C113.431 34.7972 114.019 34.4668 114.78 34.4668C115.026 34.4668 115.213 34.4987 115.341 34.5625V35.7383ZM116.038 38.2334C116.038 37.5088 116.179 36.8571 116.462 36.2783C116.749 35.6995 117.146 35.2529 117.651 34.9385C118.162 34.624 118.743 34.4668 119.395 34.4668C120.402 34.4668 121.215 34.8154 121.835 35.5127C122.459 36.21 122.771 37.1374 122.771 38.2949V38.3838C122.771 39.1038 122.632 39.751 122.354 40.3252C122.081 40.8949 121.687 41.3392 121.172 41.6582C120.661 41.9772 120.074 42.1367 119.408 42.1367C118.406 42.1367 117.592 41.7881 116.968 41.0908C116.348 40.3936 116.038 39.4707 116.038 38.3223V38.2334ZM117.31 38.3838C117.31 39.2041 117.499 39.8626 117.877 40.3594C118.26 40.8561 118.77 41.1045 119.408 41.1045C120.051 41.1045 120.561 40.8538 120.939 40.3525C121.318 39.8467 121.507 39.1403 121.507 38.2334C121.507 37.4222 121.313 36.766 120.926 36.2646C120.543 35.7588 120.033 35.5059 119.395 35.5059C118.77 35.5059 118.267 35.7542 117.884 36.251C117.501 36.7477 117.31 37.4587 117.31 38.3838ZM130.619 38.3838C130.619 39.514 130.359 40.4232 129.84 41.1113C129.32 41.7949 128.623 42.1367 127.748 42.1367C126.814 42.1367 126.091 41.8063 125.581 41.1455L125.52 42H124.357V31.5H125.622V35.417C126.132 34.7835 126.837 34.4668 127.734 34.4668C128.632 34.4668 129.336 34.8063 129.847 35.4854C130.362 36.1644 130.619 37.0941 130.619 38.2744V38.3838ZM129.354 38.2402C129.354 37.3789 129.188 36.7135 128.855 36.2441C128.523 35.7747 128.044 35.54 127.42 35.54C126.586 35.54 125.987 35.9274 125.622 36.7021V39.9014C126.009 40.6761 126.613 41.0635 127.434 41.0635C128.04 41.0635 128.511 40.8288 128.849 40.3594C129.186 39.89 129.354 39.1836 129.354 38.2402ZM131.884 38.2334C131.884 37.5088 132.025 36.8571 132.308 36.2783C132.595 35.6995 132.991 35.2529 133.497 34.9385C134.007 34.624 134.589 34.4668 135.24 34.4668C136.247 34.4668 137.061 34.8154 137.681 35.5127C138.305 36.21 138.617 37.1374 138.617 38.2949V38.3838C138.617 39.1038 138.478 39.751 138.2 40.3252C137.927 40.8949 137.533 41.3392 137.018 41.6582C136.507 41.9772 135.919 42.1367 135.254 42.1367C134.251 42.1367 133.438 41.7881 132.813 41.0908C132.194 40.3936 131.884 39.4707 131.884 38.3223V38.2334ZM133.155 38.3838C133.155 39.2041 133.344 39.8626 133.723 40.3594C134.105 40.8561 134.616 41.1045 135.254 41.1045C135.896 41.1045 136.407 40.8538 136.785 40.3525C137.163 39.8467 137.353 39.1403 137.353 38.2334C137.353 37.4222 137.159 36.766 136.771 36.2646C136.389 35.7588 135.878 35.5059 135.24 35.5059C134.616 35.5059 134.112 35.7542 133.729 36.251C133.347 36.7477 133.155 37.4587 133.155 38.3838ZM141.919 32.8125V34.6035H143.3V35.5811H141.919V40.168C141.919 40.4642 141.98 40.6875 142.104 40.8379C142.227 40.9837 142.436 41.0566 142.732 41.0566C142.878 41.0566 143.079 41.0293 143.334 40.9746V42C143.001 42.0911 142.678 42.1367 142.363 42.1367C141.798 42.1367 141.372 41.9658 141.085 41.624C140.798 41.2822 140.654 40.7969 140.654 40.168V35.5811H139.308V34.6035H140.654V32.8125H141.919Z" fill="black"/>
<path d="M38.2393 25H15.5218C14.3812 25 13.4565 25.8954 13.4565 27V49C13.4565 50.1046 14.3812 51 15.5218 51H38.2393C39.3799 51 40.3045 50.1046 40.3045 49V27C40.3045 25.8954 39.3799 25 38.2393 25Z" fill="white" stroke="#C1C1C1" stroke-width="2"/>
<defs>
<filter id="filter0_d_8_25" x="262.514" y="10" width="24.7083" height="16.7091" filterUnits="userSpaceOnUse" color-interpolation-filters="sRGB">
<feFlood flood-opacity="0" result="BackgroundImageFix"/>
<feColorMatrix in="SourceAlpha" type="matrix" values="0 0 0 0 0 0 0 0 0 0 0 0 0 0 0 0 0 0 127 0" result="hardAlpha"/>
<feOffset/>
<feGaussianBlur stdDeviation="0.5"/>
<feColorMatrix type="matrix" values="0 0 0 0 0 0 0 0 0 0 0 0 0 0 0 0 0 0 0.5 0"/>
<feBlend mode="normal" in2="BackgroundImageFix" result="effect1_dropShadow_8_25"/>
<feBlend mode="normal" in="SourceGraphic" in2="effect1_dropShadow_8_25" result="shape"/>
</filter>
<filter id="filter1_d_8_25" x="254.486" y="10.0408" width="17.1658" height="19.2383" filterUnits="userSpaceOnUse" color-interpolation-filters="sRGB">
<feFlood flood-opacity="0" result="BackgroundImageFix"/>
<feColorMatrix in="SourceAlpha" type="matrix" values="0 0 0 0 0 0 0 0 0 0 0 0 0 0 0 0 0 0 127 0" result="hardAlpha"/>
<feOffset/>
<feGaussianBlur stdDeviation="0.5"/>
<feColorMatrix type="matrix" values="0 0 0 0 0 0 0 0 0 0 0 0 0 0 0 0 0 0 0.5 0"/>
<feBlend mode="normal" in2="BackgroundImageFix" result="effect1_dropShadow_8_25"/>
<feBlend mode="normal" in="SourceGraphic" in2="effect1_dropShadow_8_25" result="shape"/>
</filter>
<filter id="filter2_d_8_25" x="254.542" y="25.1727" width="28.8677" height="16.7091" filterUnits="userSpaceOnUse" color-interpolation-filters="sRGB">
<feFlood flood-opacity="0" result="BackgroundImageFix"/>
<feColorMatrix in="SourceAlpha" type="matrix" values="0 0 0 0 0 0 0 0 0 0 0 0 0 0 0 0 0 0 127 0" result="hardAlpha"/>
<feOffset/>
<feGaussianBlur stdDeviation="0.5"/>
<feColorMatrix type="matrix" values="0 0 0 0 0 0 0 0 0 0 0 0 0 0 0 0 0 0 0.382529 0"/>
<feBlend mode="normal" in2="BackgroundImageFix" result="effect1_dropShadow_8_25"/>
<feBlend mode="normal" in="SourceGraphic" in2="effect1_dropShadow_8_25" result="shape"/>
</filter>
</defs>
</svg>
