<svg width="61" height="23" viewBox="0 0 61 23" fill="none" xmlns="http://www.w3.org/2000/svg">
<path d="M40.3054 0.448235L42.472 1.34273L59.9246 21.1408C60.501 21.7968 60.0439 22.8304 59.1692 22.8304H20.6067L40.3054 0.448235Z" fill="#2044A0"/>
<path d="M19.4736 22.8105H26.9675L42.5515 5.11946C44.1616 3.3106 42.8696 0.448227 40.4445 0.448227C39.6295 0.448227 38.8742 0.786146 38.3375 1.40235L19.4736 22.8105Z" fill="#C7DAFF"/>
<path d="M20.229 0.448227L22.3956 1.34272L41.3191 22.8105H0.530273L20.229 0.448227Z" fill="#3366FF"/>
<path d="M0.510312 22.8105H6.89102L22.4751 5.11946C24.0653 3.31059 22.7732 0.448219 20.3482 0.448219C19.5332 0.448219 18.7778 0.786139 18.2411 1.40234L0.132638 21.9757C-0.165526 22.2937 0.0730042 22.8105 0.510312 22.8105Z" fill="#C7DAFF"/>
</svg>
