<svg width="21" height="21" viewBox="0 0 21 21" fill="none" xmlns="http://www.w3.org/2000/svg">
<path d="M17.6449 9.00468C17.387 8.88994 14.972 7.8149 14.7132 7.70016C13.4988 7.15956 12.0765 7.70632 11.5366 8.91997L18.8647 12.1813C19.4053 10.9669 18.8586 9.54451 17.6449 9.00468ZM19.4161 1.07743C19.0111 0.897227 18.5806 0.943432 18.4489 1.19063L14.9403 7.8011L17.3076 8.85381L19.9798 1.87138C20.0753 1.60802 19.8212 1.25763 19.4161 1.07743Z" stroke="#B2B7C1" stroke-width="1.4" stroke-linecap="round" stroke-linejoin="round"/>
<path d="M17.6772 13.2178C16.1732 17.7967 14.2264 20.167 14.2264 20.167C14.2264 20.167 7.52132 19.9237 3.17188 14.5546C4.06979 14.6186 9.66754 14.1373 11.5958 10.4185" stroke="#B2B7C1" stroke-width="1.4" stroke-linecap="round" stroke-linejoin="round"/>
<path d="M5.77051 17.0255C5.77051 17.0255 7.89439 16.7455 9.03412 15.5549C8.12233 17.2268 7.03653 17.861 7.03653 17.861L5.77051 17.0255ZM8.76457 18.6996C8.76457 18.6996 10.4349 18.7184 13.2765 16.1009C12.2546 18.4312 10.922 19.5622 10.922 19.5622L8.76457 18.6996Z" stroke="#B2B7C1" stroke-width="1.4" stroke-linecap="round" stroke-linejoin="round"/>
<path d="M1.20337 8.04437C1.27136 8.0162 1.34423 8.00171 1.41782 8.00171C1.49142 8.00171 1.56429 8.0162 1.63228 8.04437C1.70027 8.07253 1.76205 8.11381 1.81409 8.16585C1.86612 8.21788 1.9074 8.27966 1.93557 8.34765C1.96373 8.41564 1.97822 8.48852 1.97822 8.56211C1.97822 8.6357 1.96373 8.70858 1.93557 8.77657C1.9074 8.84456 1.86612 8.90634 1.81409 8.95837C1.76205 9.01041 1.70027 9.05169 1.63228 9.07985C1.56429 9.10802 1.49142 9.12251 1.41782 9.12251C1.34423 9.12251 1.27136 9.10802 1.20337 9.07985C1.13538 9.05169 1.0736 9.01041 1.02156 8.95837C0.969521 8.90634 0.928243 8.84456 0.90008 8.77657C0.871917 8.70858 0.857422 8.6357 0.857422 8.56211C0.857422 8.48852 0.871917 8.41564 0.90008 8.34765C0.928243 8.27966 0.969521 8.21788 1.02156 8.16585C1.0736 8.11381 1.13538 8.07253 1.20337 8.04437Z" fill="#B2B7C1"/>
<path d="M2.83485 8.48473C2.90491 8.41467 2.99994 8.37531 3.09903 8.37531C3.19811 8.37531 3.29314 8.41467 3.3632 8.48473C3.43327 8.5548 3.47263 8.64983 3.47263 8.74891C3.47263 8.848 3.43327 8.94302 3.3632 9.01309C3.29314 9.08315 3.19811 9.12251 3.09903 9.12251C2.99994 9.12251 2.90491 9.08315 2.83485 9.01309C2.76479 8.94302 2.72543 8.848 2.72543 8.74891C2.72543 8.64983 2.76479 8.5548 2.83485 8.48473Z" fill="#B2B7C1"/>
<path d="M2.25179 10.1433C2.42695 9.96812 2.66451 9.86971 2.91223 9.86971C3.15994 9.86971 3.39751 9.96812 3.57266 10.1433C3.74782 10.3184 3.84623 10.556 3.84623 10.8037C3.84623 11.0514 3.74782 11.289 3.57266 11.4642C3.39751 11.6393 3.15994 11.7377 2.91223 11.7377C2.66451 11.7377 2.42695 11.6393 2.25179 11.4642C2.07663 11.289 1.97822 11.0514 1.97822 10.8037C1.97822 10.556 2.07663 10.3184 2.25179 10.1433Z" fill="#B2B7C1"/>
</svg>
