<svg width="26" height="22" viewBox="0 0 26 22" fill="none" xmlns="http://www.w3.org/2000/svg">
<path d="M7 11C7 10.7348 7.10536 10.4804 7.29289 10.2929C7.48043 10.1054 7.73478 10 8 10H17V3.5C17 1.5 14.8881 0 13 0H3.5C2.57205 0.000992641 1.68238 0.37006 1.02622 1.02622C0.37006 1.68238 0.000992641 2.57205 0 3.5V18.5C0.000992641 19.428 0.37006 20.3176 1.02622 20.9738C1.68238 21.6299 2.57205 21.999 3.5 22H13.5C14.428 21.999 15.3176 21.6299 15.9738 20.9738C16.6299 20.3176 16.999 19.428 17 18.5V12H8C7.73478 12 7.48043 11.8946 7.29289 11.7071C7.10536 11.5196 7 11.2652 7 11Z" fill="#B1B1B8"/>
<path d="M25.7069 10.2931L20.7069 5.29312C20.5178 5.1135 20.2661 5.01484 20.0053 5.01818C19.7445 5.02152 19.4954 5.12659 19.311 5.31099C19.1266 5.49539 19.0215 5.74453 19.0182 6.00529C19.0148 6.26606 19.1135 6.51781 19.2931 6.70687L22.5856 9.99999H17V12H22.5856L19.2931 15.2931C19.1964 15.3851 19.119 15.4954 19.0655 15.6177C19.0121 15.7401 18.9837 15.8718 18.982 16.0053C18.9803 16.1388 19.0053 16.2712 19.0556 16.3949C19.1059 16.5185 19.1804 16.6308 19.2748 16.7252C19.3692 16.8196 19.4815 16.8941 19.6051 16.9444C19.7288 16.9947 19.8612 17.0197 19.9947 17.018C20.1282 17.0163 20.2599 16.9879 20.3822 16.9345C20.5046 16.881 20.6149 16.8036 20.7069 16.7069L25.7069 11.7069C25.8943 11.5194 25.9995 11.2651 25.9995 11C25.9995 10.7349 25.8943 10.4806 25.7069 10.2931Z" fill="#B1B1B8"/>
</svg>
